G75*
%MOIN*%
%OFA0B0*%
%FSLAX24Y24*%
%IPPOS*%
%LPD*%
%AMOC8*
5,1,8,0,0,1.08239X$1,22.5*
%
%ADD10C,0.0050*%
%ADD11R,0.0631X0.0552*%
%ADD12R,0.0434X0.0434*%
%ADD13R,0.0552X0.0631*%
%ADD14R,0.1024X0.0512*%
%ADD15C,0.0985*%
%ADD16C,0.0926*%
D10*
X001003Y001149D02*
X020688Y001149D01*
X020688Y014141D01*
X001003Y014141D01*
X001003Y001149D01*
D11*
X006066Y004857D03*
X006066Y005526D03*
X008109Y005526D03*
X008109Y004857D03*
X010400Y004857D03*
X010400Y005526D03*
X015377Y005526D03*
X015377Y004857D03*
D12*
X013306Y004853D03*
X013306Y005641D03*
X008109Y007231D03*
X008109Y008019D03*
D13*
X006617Y008015D03*
X005948Y008015D03*
X009755Y007900D03*
X010424Y007900D03*
X013660Y007869D03*
X014330Y007869D03*
D14*
X013566Y010011D03*
X013566Y010995D03*
X013566Y011979D03*
X011920Y011979D03*
X011920Y010995D03*
X011920Y010011D03*
X009755Y010011D03*
X009755Y010995D03*
X009755Y011979D03*
X008109Y011979D03*
X008109Y010995D03*
X008109Y010011D03*
X005944Y010011D03*
X005944Y010995D03*
X005944Y011979D03*
X015731Y011979D03*
X015731Y010995D03*
X015731Y010011D03*
D15*
X017786Y010133D03*
X019786Y010133D03*
X019786Y008133D03*
X017786Y008133D03*
X003893Y008023D03*
X001893Y008023D03*
X001893Y010023D03*
X003893Y010023D03*
D16*
X002893Y009023D03*
X018786Y009133D03*
M02*
